<svg width="24" height="29" viewBox="0 0 24 29" fill="none" xmlns="http://www.w3.org/2000/svg">
<path d="M24 25.1341L22.2715 6.32705C22.2404 5.95487 21.9171 5.67274 21.5254 5.67274H17.8819C17.8756 2.54523 15.2394 0 12 0C8.76062 0 6.12435 2.54523 6.11813 5.67274H2.47461C2.08912 5.67274 1.7658 5.95487 1.7285 6.32705L0 25.1341C0 25.1581 0 25.1762 0 25.2002C0 27.2952 1.99585 29 4.4456 29H19.5544C22.0041 29 24 27.2952 24 25.2002C24 25.1762 24 25.1581 24 25.1341ZM12 1.4407C14.4187 1.4407 16.3834 3.33761 16.3896 5.67274H7.61036C7.61658 3.33761 9.58135 1.4407 12 1.4407ZM19.5544 27.5533H4.4456C2.82902 27.5533 1.51088 26.5148 1.49223 25.2242L3.15855 7.11343H6.11813V9.64065C6.11813 10.0368 6.45389 10.361 6.86425 10.361C7.27461 10.361 7.61036 10.0368 7.61036 9.64065V7.11343H16.3896V9.64065C16.3896 10.0368 16.7254 10.361 17.1358 10.361C17.5461 10.361 17.8819 10.0368 17.8819 9.64065V7.11343H20.8415L22.5078 25.2302C22.4891 26.5148 21.171 27.5533 19.5544 27.5533Z" fill="#303531"/>
</svg>
